 <svg xmlns="http://www.w3.org/2000/svg" width="56" height="13" viewBox="0 0 56 13" fill="none"> <path d="M55.0778 1.36098C55.0778 0.946772 54.742 0.610983 54.3278 0.610983L47.5778 0.610986C47.1636 0.610986 46.8278 0.946772 46.8278 1.36099C46.8278 1.7752 47.1636 2.11099 47.5778 2.11099L53.5778 2.11099L53.5778 8.11099C53.5778 8.5252 53.9136 8.86098 54.3278 8.86099C54.742 8.86098 55.0778 8.5252 55.0778 8.11099L55.0778 1.36098ZM2.04456 5.33224C1.6851 5.12641 1.22685 5.25095 1.02102 5.61041C0.815197 5.96986 0.939736 6.42812 1.29919 6.63394L2.04456 5.33224ZM53.7975 0.830654C47.4331 7.19502 38.4581 10.5905 29.0626 11.2527C19.6674 11.9148 9.91328 9.83795 2.04456 5.33224L1.29919 6.63394C9.44503 11.2983 19.4989 13.4304 29.1681 12.7489C38.8369 12.0675 48.1826 8.56687 54.8581 1.89131L53.7975 0.830654Z" fill="#A1A1A1"/> </svg>