<svg width="49" height="47" viewBox="0 0 49 47" fill="none" xmlns="http://www.w3.org/2000/svg">
<path fill-rule="evenodd" clip-rule="evenodd" d="M4.63961 18.758C5.2164 14.739 5.24107 10.6046 5.23595 6.5975C5.23201 5.7348 4.55511 5.01892 3.73423 5.06101C2.90508 5.04248 2.23757 5.74377 2.23384 6.54578C2.24205 10.4291 2.23227 14.4377 1.6723 18.2695C1.54908 19.0867 2.11541 19.8786 2.93553 20.0216C3.75504 20.1647 4.5158 19.5752 4.63961 18.758Z" fill="white"/>
<path fill-rule="evenodd" clip-rule="evenodd" d="M21.2642 28.6179C26.7225 21.5775 31.2769 13.8497 36.9182 6.9094C37.4484 6.28749 37.3577 5.31243 36.7217 4.77624C36.085 4.24013 35.1357 4.29868 34.6132 4.98128C28.9535 11.9239 24.3813 19.6539 18.9045 26.6967C18.3963 27.3775 18.5107 28.3493 19.1628 28.8835C19.8066 29.357 20.7559 29.2987 21.2642 28.6179Z" fill="white"/>
<path fill-rule="evenodd" clip-rule="evenodd" d="M46.7774 37.2941C43.2242 37.9282 39.6709 38.5618 36.1171 39.1959C35.2979 39.2994 34.7575 40.108 34.9047 40.9526C35.0525 41.7971 35.8264 42.3155 36.6462 42.2119C40.2054 41.5771 43.764 40.9428 47.3226 40.3081C48.1341 40.1439 48.6703 39.3361 48.5184 38.4921C48.3741 37.7088 47.5883 37.13 46.7774 37.2941Z" fill="white"/>
</svg>