<svg width="1002" height="991" viewBox="0 0 1002 991" fill="none" xmlns="http://www.w3.org/2000/svg">
<path d="M902.5 625C845.673 889.124 767 867.5 567.673 889.124C439.173 889.124 199.845 879.5 130.673 772.5C61.5 665.5 2.00004 599 2.00006 497C16.5 354 74.0136 257.038 130.673 193.124C196.72 118.619 283.021 125.5 437.5 125.5C583 125.5 763.879 128.331 845.673 217.124C934.152 313.174 938 468.5 902.5 625Z" fill="#CCCCCC"/>
<path d="M832.752 708C760.903 883.5 723 823 516.356 837.138C419.666 837.138 271.613 856.842 182.5 767.5C93.6127 640.842 74.1242 565.5 85 482.5C104 337.5 143.083 287.09 195.5 228C256.602 159.12 385.086 172 528 172C638.5 178.5 757.082 180.004 832.752 262.094C914.608 350.894 896.005 553.5 832.752 708Z" fill="#DDDDDD"/>
<path d="M115.526 531.052C83.3933 377.76 143.906 329.788 255.272 237.86C319.877 195.306 452.449 152.491 552.789 175.21C670.019 223.9 780.394 234.275 811.029 296.604C864.547 405.491 849.463 451.874 831.494 542.777C811.029 616.768 817.856 701.563 722.365 764.461C651.557 846.023 437.146 835.387 349.099 811.78C253.856 786.242 143.815 666.002 115.526 531.052Z" fill="#EEEEEE"/>
</svg>
