<svg xmlns="http://www.w3.org/2000/svg" xmlns:xlink="http://www.w3.org/1999/xlink" viewBox="0 0 22 40" id="svg4153102618"><g><defs><linearGradient id="idss4153102618_1g22935000" x1="0.10029519913188571" x2="0.8997048008681143" y1="0" y2="1"><stop offset="0" stop-color="var(--token-0d7325af-cd74-4cc9-ac1e-38bcfcff3f4e, rgb(107, 114, 128)) /* {&quot;name&quot;:&quot;Gray 500&quot;} */" stop-opacity="1"></stop><stop offset="1" stop-color="var(--token-f7d4ccfc-b1b4-421c-aa01-0824d56a7930, rgb(55, 65, 81)) /* {&quot;name&quot;:&quot;Gray 700&quot;} */" stop-opacity="1"></stop></linearGradient></defs><path d="M 8.447 31.461 C 7.835 31.461 7.338 32.022 7.338 32.714 C 7.338 33.406 7.835 33.967 8.447 33.967 L 12.88 33.967 C 13.492 33.967 13.988 33.406 13.988 32.714 C 13.988 32.022 13.492 31.461 12.88 31.461 Z" fill="url(#idss4153102618_1g22935000)"></path></g><g><defs><linearGradient id="idss4153102618_2g303863969" x1="0.10029519913188571" x2="0.8997048008681143" y1="0" y2="1"><stop offset="0" stop-color="var(--token-0d7325af-cd74-4cc9-ac1e-38bcfcff3f4e, rgb(107, 114, 128)) /* {&quot;name&quot;:&quot;Gray 500&quot;} */" stop-opacity="1"></stop><stop offset="1" stop-color="var(--token-6069a1bc-df72-42e6-ae5c-4cb031f2d77e, rgb(17, 24, 39)) /* {&quot;name&quot;:&quot;Gray 900&quot;} */" stop-opacity="1"></stop></linearGradient></defs><path d="M 5.676 1.387 C 2.922 1.387 0.689 3.912 0.689 7.026 L 0.689 33.34 C 0.689 36.454 2.922 38.979 5.676 38.979 L 15.65 38.979 C 18.405 38.979 20.638 36.454 20.638 33.34 L 20.638 7.026 C 20.638 3.912 18.405 1.387 15.65 1.387 Z M 4.014 7.026 C 4.014 5.988 4.758 5.146 5.676 5.146 L 7.338 5.146 L 7.338 5.773 C 7.338 6.811 8.083 7.652 9.001 7.652 L 12.326 7.652 C 13.244 7.652 13.988 6.811 13.988 5.773 L 13.988 5.146 L 15.65 5.146 C 16.568 5.146 17.313 5.988 17.313 7.026 L 17.313 33.34 C 17.313 34.378 16.568 35.22 15.65 35.22 L 5.676 35.22 C 4.758 35.22 4.014 34.378 4.014 33.34 Z" fill="url(#idss4153102618_2g303863969)"></path></g></svg>